<svg version="1.0" xmlns="http://www.w3.org/2000/svg"
 width="24.000000pt" height="24.000000pt" viewBox="0 0 24.000000 24.000000"
 preserveAspectRatio="xMidYMid meet">

<g transform="translate(0.000000,24.000000) scale(0.100000,-0.100000)"
fill="#007bff" stroke="none">
<path d="M22 228 c-16 -16 -16 -200 0 -216 7 -7 32 -11 57 -11 l46 2 -43 7
c-24 3 -48 13 -53 21 -11 18 -11 160 0 178 5 8 29 18 53 21 l43 7 -45 2 c-26
0 -51 -4 -58 -11z"/>
<path d="M180 164 c0 -5 5 -15 12 -22 9 -9 -3 -12 -55 -12 -38 0 -67 -4 -67
-10 0 -6 29 -10 66 -10 58 0 65 -2 54 -15 -22 -27 -5 -26 20 0 l24 26 -27 27
c-15 14 -27 22 -27 16z"/>
</g>
</svg>
